<svg width="164" height="71" viewBox="0 0 164 71" fill="none" xmlns="http://www.w3.org/2000/svg">
<rect width="164" height="71" rx="12" fill="#EFEFEF"/>
<g clip-path="url(#clip0_2580_33005)">
<path d="M30.6912 33.6721C30.6912 34.5086 30.1811 34.9899 29.2816 34.9899H28.1004V32.3553H29.2869C30.1811 32.3553 30.6912 32.8313 30.6912 33.6721ZM33.0004 36.7154C33.0004 37.1187 33.3504 37.3812 33.8999 37.3812C34.5999 37.3812 35.1249 36.9394 35.1249 36.3164V35.9419L33.9821 36.0145C33.3355 36.0582 33.0004 36.2963 33.0004 36.7145V36.7154ZM44.0009 26.8961V44.0076C44.0006 44.6265 43.7547 45.2199 43.3171 45.6575C42.8795 46.0951 42.2861 46.341 41.6672 46.3412H18.3336C17.7148 46.341 17.1213 46.0951 16.6838 45.6575C16.2462 45.2199 16.0002 44.6265 16 44.0076V26.8961C16.0002 26.2773 16.2462 25.6838 16.6838 25.2463C17.1213 24.8087 17.7148 24.5627 18.3336 24.5625H41.6672C42.2861 24.5627 42.8795 24.8087 43.3171 25.2463C43.7547 25.6838 44.0006 26.2773 44.0009 26.8961ZM22.2134 32.6414C22.622 32.6755 23.0298 32.4375 23.2879 32.1356C23.5408 31.8241 23.7061 31.4068 23.6624 30.9833C23.3028 30.9981 22.8556 31.2212 22.5975 31.5327C22.3639 31.8005 22.1652 32.2327 22.2134 32.6414ZM25.1595 36.263C25.1499 36.2534 24.2066 35.8938 24.197 34.8044C24.1874 33.8953 24.9408 33.4577 24.9749 33.4332C24.547 32.8015 23.8855 32.7332 23.6571 32.7184C23.0639 32.6842 22.5581 33.0535 22.2764 33.0535C21.9894 33.0535 21.5615 32.7324 21.0951 32.7429C20.7906 32.751 20.4936 32.8387 20.2335 32.9972C19.9735 33.1558 19.7595 33.3798 19.6129 33.6467C18.9759 34.7458 19.4475 36.3689 20.0652 37.2631C20.3663 37.705 20.7311 38.1915 21.208 38.1723C21.6595 38.153 21.8397 37.8809 22.384 37.8809C22.9335 37.8809 23.0893 38.1722 23.5653 38.1679C24.0614 38.1582 24.3676 37.726 24.6739 37.2832C25.009 36.7775 25.1499 36.2919 25.1604 36.2621L25.1595 36.263ZM31.7413 33.6678C31.7413 32.3745 30.8418 31.4899 29.5581 31.4899H27.0696V38.1206H28.1004V35.8553H29.5249C30.8278 35.8553 31.7413 34.961 31.7413 33.6678ZM36.1162 34.8193C36.1162 33.862 35.348 33.2443 34.172 33.2443C33.0782 33.2443 32.2715 33.8716 32.2418 34.7265H33.1701C33.248 34.3179 33.6269 34.051 34.1423 34.051C34.774 34.051 35.124 34.3424 35.124 34.8875V35.2524L33.8404 35.3302C32.6443 35.4029 31.9985 35.8946 31.9985 36.7451C31.9985 37.6053 32.6644 38.174 33.6216 38.174C34.2682 38.174 34.8659 37.8485 35.138 37.3279H35.1572V38.125H36.1101V34.8193H36.1162ZM41.0845 33.3073H40.0397L38.8296 37.2255H38.8104L37.6002 33.3073H36.5161L38.2609 38.1346L38.169 38.426C38.0132 38.9221 37.756 39.1164 37.2992 39.1164C37.1985 39.1145 37.0978 39.1096 36.9974 39.1015V39.8986C37.056 39.9179 37.3132 39.9231 37.3911 39.9231C38.3974 39.9231 38.869 39.539 39.282 38.377L41.0845 33.3073Z" fill="#1A1919"/>
</g>
<path d="M74.312 40.578C74.708 40.578 74.906 40.74 74.906 41.064V41.514C74.906 41.838 74.708 42 74.312 42H71.702C71.306 42 71.108 41.838 71.108 41.514V41.064C71.108 40.74 71.306 40.578 71.702 40.578H72.17L71.144 37.932H66.338L65.348 40.578H65.816C66.212 40.578 66.41 40.74 66.41 41.064V41.514C66.41 41.838 66.212 42 65.816 42H63.35C62.966 42 62.774 41.838 62.774 41.514V41.064C62.774 40.74 62.966 40.578 63.35 40.578H63.818L67.922 29.814C67.97 29.694 68.048 29.598 68.156 29.526C68.264 29.442 68.384 29.4 68.516 29.4H69.056C69.176 29.4 69.29 29.436 69.398 29.508C69.506 29.58 69.584 29.676 69.632 29.796L73.844 40.578H74.312ZM70.604 36.51L68.714 31.632L66.878 36.51H70.604ZM81.9222 32.82C82.6542 32.82 83.2902 33.006 83.8302 33.378C84.3702 33.75 84.7902 34.284 85.0902 34.98C85.3902 35.664 85.5402 36.468 85.5402 37.392C85.5402 38.88 85.1862 40.05 84.4782 40.902C83.7702 41.754 82.8042 42.18 81.5802 42.18C81.0882 42.18 80.6142 42.066 80.1582 41.838C79.7022 41.598 79.3122 41.262 78.9882 40.83V44.718H79.4562C79.8522 44.718 80.0502 44.88 80.0502 45.204V45.654C80.0502 45.978 79.8522 46.14 79.4562 46.14H76.9182C76.5222 46.14 76.3242 45.978 76.3242 45.654V45.204C76.3242 44.88 76.5222 44.718 76.9182 44.718H77.3862V34.422H76.9182C76.5222 34.422 76.3242 34.26 76.3242 33.936V33.486C76.3242 33.162 76.5222 33 76.9182 33H78.3582C78.5382 33 78.6882 33.066 78.8082 33.198C78.9282 33.318 78.9882 33.474 78.9882 33.666V34.8C79.2042 34.236 79.5882 33.768 80.1402 33.396C80.7042 33.012 81.2982 32.82 81.9222 32.82ZM81.4182 40.776C82.2222 40.776 82.8342 40.482 83.2542 39.894C83.6862 39.294 83.9022 38.43 83.9022 37.302C83.9022 36.33 83.6982 35.574 83.2902 35.034C82.8822 34.494 82.3062 34.224 81.5622 34.224C81.0942 34.224 80.6622 34.356 80.2662 34.62C79.8702 34.872 79.5582 35.22 79.3302 35.664C79.1022 36.108 78.9882 36.594 78.9882 37.122V39.444C79.3122 39.876 79.6842 40.206 80.1042 40.434C80.5242 40.662 80.9622 40.776 81.4182 40.776ZM92.7679 32.82C93.4999 32.82 94.1359 33.006 94.6759 33.378C95.2159 33.75 95.6359 34.284 95.9359 34.98C96.2359 35.664 96.3859 36.468 96.3859 37.392C96.3859 38.88 96.0319 40.05 95.3239 40.902C94.6159 41.754 93.6499 42.18 92.4259 42.18C91.9339 42.18 91.4599 42.066 91.0039 41.838C90.5479 41.598 90.1579 41.262 89.8339 40.83V44.718H90.3019C90.6979 44.718 90.8959 44.88 90.8959 45.204V45.654C90.8959 45.978 90.6979 46.14 90.3019 46.14H87.7639C87.3679 46.14 87.1699 45.978 87.1699 45.654V45.204C87.1699 44.88 87.3679 44.718 87.7639 44.718H88.2319V34.422H87.7639C87.3679 34.422 87.1699 34.26 87.1699 33.936V33.486C87.1699 33.162 87.3679 33 87.7639 33H89.2039C89.3839 33 89.5339 33.066 89.6539 33.198C89.7739 33.318 89.8339 33.474 89.8339 33.666V34.8C90.0499 34.236 90.4339 33.768 90.9859 33.396C91.5499 33.012 92.1439 32.82 92.7679 32.82ZM92.2639 40.776C93.0679 40.776 93.6799 40.482 94.0999 39.894C94.5319 39.294 94.7479 38.43 94.7479 37.302C94.7479 36.33 94.5439 35.574 94.1359 35.034C93.7279 34.494 93.1519 34.224 92.4079 34.224C91.9399 34.224 91.5079 34.356 91.1119 34.62C90.7159 34.872 90.4039 35.22 90.1759 35.664C89.9479 36.108 89.8339 36.594 89.8339 37.122V39.444C90.1579 39.876 90.5299 40.206 90.9499 40.434C91.3699 40.662 91.8079 40.776 92.2639 40.776ZM98.6096 42C98.2136 42 98.0156 41.838 98.0156 41.514V41.064C98.0156 40.74 98.2136 40.578 98.6096 40.578H99.0776V30.102H98.6096C98.2136 30.102 98.0156 29.94 98.0156 29.616V29.166C98.0156 28.842 98.2136 28.68 98.6096 28.68H100.032C100.212 28.68 100.362 28.746 100.482 28.878C100.614 28.998 100.68 29.154 100.68 29.346V40.578H101.148C101.544 40.578 101.742 40.74 101.742 41.064V41.514C101.742 41.838 101.544 42 101.148 42H98.6096ZM111.448 37.05C111.448 37.11 111.43 37.374 111.394 37.842H105.004C105.064 38.754 105.328 39.474 105.796 40.002C106.264 40.518 106.888 40.776 107.668 40.776C108.196 40.776 108.616 40.692 108.928 40.524C109.24 40.356 109.534 40.056 109.81 39.624C109.906 39.48 109.996 39.378 110.08 39.318C110.176 39.258 110.284 39.228 110.404 39.228C110.584 39.228 110.74 39.288 110.872 39.408C111.016 39.516 111.088 39.654 111.088 39.822C111.088 40.05 111.004 40.284 110.836 40.524C110.488 41.088 110.056 41.508 109.54 41.784C109.024 42.048 108.382 42.18 107.614 42.18C106.762 42.18 106.012 41.982 105.364 41.586C104.728 41.19 104.23 40.632 103.87 39.912C103.522 39.192 103.348 38.364 103.348 37.428C103.348 36.504 103.522 35.694 103.87 34.998C104.218 34.302 104.71 33.768 105.346 33.396C105.982 33.012 106.72 32.82 107.56 32.82C108.724 32.82 109.66 33.192 110.368 33.936C111.088 34.68 111.448 35.718 111.448 37.05ZM107.524 34.152C106.816 34.152 106.246 34.368 105.814 34.8C105.394 35.22 105.136 35.832 105.04 36.636H109.81C109.798 34.98 109.036 34.152 107.524 34.152ZM123.565 32.82C124.297 32.82 124.933 33.006 125.473 33.378C126.013 33.75 126.433 34.284 126.733 34.98C127.033 35.664 127.183 36.468 127.183 37.392C127.183 38.88 126.829 40.05 126.121 40.902C125.413 41.754 124.447 42.18 123.223 42.18C122.731 42.18 122.257 42.066 121.801 41.838C121.345 41.598 120.955 41.262 120.631 40.83V44.718H121.099C121.495 44.718 121.693 44.88 121.693 45.204V45.654C121.693 45.978 121.495 46.14 121.099 46.14H118.561C118.165 46.14 117.967 45.978 117.967 45.654V45.204C117.967 44.88 118.165 44.718 118.561 44.718H119.029V34.422H118.561C118.165 34.422 117.967 34.26 117.967 33.936V33.486C117.967 33.162 118.165 33 118.561 33H120.001C120.181 33 120.331 33.066 120.451 33.198C120.571 33.318 120.631 33.474 120.631 33.666V34.8C120.847 34.236 121.231 33.768 121.783 33.396C122.347 33.012 122.941 32.82 123.565 32.82ZM123.061 40.776C123.865 40.776 124.477 40.482 124.897 39.894C125.329 39.294 125.545 38.43 125.545 37.302C125.545 36.33 125.341 35.574 124.933 35.034C124.525 34.494 123.949 34.224 123.205 34.224C122.737 34.224 122.305 34.356 121.909 34.62C121.513 34.872 121.201 35.22 120.973 35.664C120.745 36.108 120.631 36.594 120.631 37.122V39.444C120.955 39.876 121.327 40.206 121.747 40.434C122.167 40.662 122.605 40.776 123.061 40.776ZM136.876 40.578C137.26 40.578 137.452 40.74 137.452 41.064V41.514C137.452 41.838 137.26 42 136.876 42H135.436C135.256 42 135.1 41.94 134.968 41.82C134.848 41.688 134.788 41.526 134.788 41.334V40.2C134.56 40.764 134.164 41.238 133.6 41.622C133.048 41.994 132.46 42.18 131.836 42.18C130.996 42.18 130.318 41.94 129.802 41.46C129.286 40.968 129.028 40.32 129.028 39.516C129.028 38.676 129.31 38.028 129.874 37.572C130.45 37.116 131.266 36.888 132.322 36.888C133.126 36.888 133.948 36.984 134.788 37.176V36.366C134.788 35.622 134.614 35.07 134.266 34.71C133.918 34.35 133.378 34.17 132.646 34.17C132.082 34.17 131.662 34.278 131.386 34.494C131.47 34.638 131.512 34.794 131.512 34.962C131.512 35.238 131.416 35.472 131.224 35.664C131.032 35.856 130.798 35.952 130.522 35.952C130.198 35.952 129.94 35.85 129.748 35.646C129.556 35.442 129.46 35.166 129.46 34.818C129.46 34.23 129.766 33.75 130.378 33.378C130.99 33.006 131.77 32.82 132.718 32.82C133.906 32.82 134.812 33.138 135.436 33.774C136.072 34.41 136.39 35.31 136.39 36.474V40.578H136.876ZM132.214 40.866C132.67 40.866 133.09 40.746 133.474 40.506C133.87 40.254 134.182 39.924 134.41 39.516C134.65 39.096 134.776 38.64 134.788 38.148C134.248 38.064 133.504 38.022 132.556 38.022C131.26 38.022 130.612 38.502 130.612 39.462C130.612 39.906 130.756 40.254 131.044 40.506C131.332 40.746 131.722 40.866 132.214 40.866ZM146.983 33C147.379 33 147.577 33.162 147.577 33.486V33.936C147.577 34.26 147.379 34.422 146.983 34.422H146.515L142.825 43.494C142.381 44.55 141.943 45.282 141.511 45.69C141.091 46.11 140.551 46.32 139.891 46.32C139.375 46.32 138.949 46.176 138.613 45.888C138.289 45.612 138.127 45.258 138.127 44.826C138.127 44.514 138.223 44.262 138.415 44.07C138.619 43.878 138.877 43.782 139.189 43.782C139.465 43.782 139.699 43.878 139.891 44.07C140.083 44.262 140.179 44.496 140.179 44.772C140.179 44.832 140.167 44.91 140.143 45.006C140.371 44.958 140.575 44.808 140.755 44.556C140.935 44.316 141.133 43.926 141.349 43.386L142.015 41.712L139.027 34.422H138.559C138.163 34.422 137.965 34.26 137.965 33.936V33.486C137.965 33.162 138.163 33 138.559 33H141.025C141.409 33 141.601 33.162 141.601 33.486V33.936C141.601 34.26 141.409 34.422 141.025 34.422H140.719L142.861 39.768L144.967 34.422H144.607C144.211 34.422 144.013 34.26 144.013 33.936V33.486C144.013 33.162 144.211 33 144.607 33H146.983Z" fill="#1A1919"/>
<defs>
<clipPath id="clip0_2580_33005">
<rect width="28" height="28" fill="white" transform="translate(16 21.5)"/>
</clipPath>
</defs>
</svg>
