<svg width="113" height="25" viewBox="0 0 113 25" fill="none" xmlns="http://www.w3.org/2000/svg">
<path d="M112.73 11.3578V9.38056H110.284V6.30673L110.202 6.33227L107.859 7.05164V9.38056H104.233V8.08228C104.198 7.59076 104.34 7.10298 104.633 6.70738C104.774 6.55204 104.948 6.43019 105.141 6.35067C105.335 6.27115 105.544 6.23596 105.753 6.24766C106.121 6.25258 106.483 6.33526 106.816 6.49029L106.906 6.53073V4.45029L106.864 4.43486C106.424 4.29891 105.965 4.23741 105.505 4.25289C104.834 4.24227 104.171 4.40205 103.578 4.7174C103.021 5.01827 102.562 5.47379 102.256 6.02951C101.938 6.62023 101.777 7.2832 101.788 7.95458V9.38056H100.085V11.3578H101.788V19.6865H104.233V11.3578H107.859V16.6488C107.859 18.8303 108.884 19.9333 110.904 19.9333C111.253 19.9314 111.601 19.8927 111.942 19.8179C112.204 19.7732 112.458 19.6923 112.698 19.5774L112.73 19.5582V17.5629L112.631 17.6289C112.479 17.7253 112.313 17.7971 112.139 17.8417C111.983 17.8904 111.82 17.9181 111.656 17.9242C111.466 17.9409 111.274 17.9155 111.094 17.8498C110.914 17.7841 110.751 17.6796 110.616 17.5438C110.359 17.1544 110.241 16.6884 110.284 16.2231V11.3578H112.73ZM94.6239 17.9258C94.2338 17.9462 93.844 17.8779 93.4839 17.726C93.1237 17.5741 92.8023 17.3424 92.5438 17.0484C92.0076 16.3389 91.7425 15.4599 91.7964 14.571C91.7395 13.6614 92.0042 12.7607 92.5438 12.0277C92.7969 11.7315 93.1141 11.4972 93.4711 11.3427C93.8281 11.1883 94.2155 11.1177 94.6038 11.1364C94.9804 11.1183 95.3561 11.1854 95.7034 11.3327C96.0506 11.4801 96.3603 11.704 96.6097 11.9878C97.1452 12.7143 97.405 13.6088 97.3423 14.5104C97.4041 15.4151 97.1614 16.3146 96.6532 17.0644C96.4052 17.3567 96.0925 17.5867 95.7402 17.7361C95.3879 17.8855 95.0056 17.9512 94.6239 17.9258ZM94.7326 9.12836C94.0011 9.08797 93.269 9.19849 92.5817 9.45308C91.8943 9.70767 91.2663 10.1009 90.7362 10.6086C90.2403 11.1521 89.8573 11.7892 89.6094 12.4829C89.3615 13.1765 89.2536 13.9128 89.2922 14.6487C89.2571 15.3537 89.3638 16.0585 89.606 16.7212C89.8481 17.3839 90.2208 17.9908 90.7017 18.5058C91.2029 18.9888 91.7968 19.3642 92.4472 19.6092C93.0977 19.8542 93.7911 19.9636 94.485 19.9307C95.2059 19.9662 95.9263 19.8513 96.6006 19.593C97.2749 19.3347 97.8885 18.9388 98.4025 18.4302C98.8942 17.892 99.275 17.2615 99.5228 16.575C99.7706 15.8884 99.8806 15.1594 99.8465 14.43C99.9235 13.0066 99.4366 11.6103 98.4921 10.5458C97.9973 10.0613 97.4077 9.6852 96.7605 9.44147C96.1134 9.19773 95.4228 9.09165 94.7326 9.12995V9.12836ZM85.3499 9.12995C84.3332 9.08678 83.3328 9.39706 82.5176 10.0084C82.167 10.2755 81.8843 10.622 81.6925 11.0196C81.5007 11.4172 81.4053 11.8547 81.4139 12.2964C81.4054 12.7339 81.4864 13.1685 81.6519 13.5734C81.8162 13.9463 82.0666 14.2746 82.3824 14.5311C82.8377 14.8747 83.3369 15.1553 83.8667 15.3654C84.2902 15.5324 84.703 15.7253 85.1029 15.9433C85.3132 16.0534 85.4986 16.2062 85.6473 16.3918C85.7561 16.5668 85.8089 16.7711 85.7983 16.9771C85.7983 17.6688 85.282 18.0061 84.2187 18.0061C83.7631 17.9953 83.3122 17.9125 82.8823 17.7608C82.3932 17.6004 81.9316 17.3655 81.5136 17.0644L81.4118 16.9915V19.3544L81.4489 19.372C81.8646 19.5542 82.2993 19.6889 82.745 19.7737C83.1999 19.8733 83.6636 19.9268 84.1291 19.9333C85.197 19.9893 86.252 19.6775 87.1194 19.0496C87.4757 18.7751 87.7623 18.4199 87.9558 18.013C88.1493 17.6061 88.2441 17.1591 88.2326 16.7084C88.2501 16.0652 88.0376 15.4371 87.6335 14.9376C87.0678 14.3479 86.3702 13.9019 85.5985 13.6367C85.0788 13.462 84.5896 13.2067 84.1487 12.8801C84.0481 12.7751 83.9703 12.6504 83.9199 12.5138C83.8696 12.3772 83.8478 12.2316 83.8561 12.0862C83.854 11.9428 83.8866 11.801 83.9513 11.6731C84.0159 11.5451 84.1106 11.4349 84.2271 11.3519C84.5318 11.1404 84.8979 11.0367 85.2677 11.0572C85.6878 11.0592 86.1053 11.1235 86.5066 11.2482C86.8903 11.3605 87.2551 11.5302 87.5885 11.7515L87.6881 11.8202V9.58169L87.65 9.56519C87.2959 9.42358 86.9276 9.32048 86.5516 9.25765C86.1547 9.1796 85.7516 9.13775 85.3472 9.13261L85.3499 9.12995ZM75.0406 17.9258C74.6504 17.9462 74.2607 17.8779 73.9005 17.726C73.5403 17.5741 73.2189 17.3424 72.9605 17.0484C72.425 16.3395 72.1601 15.4616 72.2136 14.5737C72.1567 13.664 72.4213 12.7634 72.961 12.0303C73.214 11.734 73.5311 11.4997 73.8881 11.3452C74.2451 11.1908 74.6326 11.1203 75.0209 11.1391C75.3975 11.1209 75.7733 11.188 76.1205 11.3354C76.4677 11.4828 76.7775 11.7066 77.0268 11.9904C77.5624 12.7169 77.8222 13.6114 77.7594 14.513C77.8213 15.4178 77.5786 16.3172 77.0703 17.067C76.8224 17.3594 76.5097 17.5894 76.1574 17.7388C75.805 17.8882 75.4227 17.9528 75.0411 17.9274L75.0406 17.9258ZM75.1503 9.13102C74.4187 9.09057 73.6867 9.20106 72.9993 9.45565C72.312 9.71024 71.6839 10.1035 71.1539 10.6113C70.6579 11.1547 70.2748 11.7918 70.0268 12.4855C69.7788 13.1791 69.6709 13.9154 69.7094 14.6514C69.6743 15.3564 69.781 16.0613 70.0233 16.724C70.2655 17.3866 70.6384 17.9935 71.1194 18.5084C71.6205 18.9915 72.2144 19.3669 72.8649 19.6119C73.5154 19.8569 74.2088 19.9663 74.9027 19.9333C75.6236 19.9689 76.3439 19.8539 77.0182 19.5956C77.6926 19.3373 78.3061 18.9414 78.8201 18.4329C79.3119 17.8947 79.6926 17.2642 79.9405 16.5776C80.1883 15.8911 80.2983 15.1621 80.2641 14.4327C80.3411 13.0092 79.8541 11.6129 78.9092 10.5485C78.4145 10.064 77.825 9.68797 77.1779 9.44424C76.5308 9.20051 75.8404 9.09439 75.1503 9.13261V9.13102ZM65.9982 11.1657V9.38056H63.583V19.6865H65.9982V14.4141C65.9636 13.6389 66.1744 12.8726 66.6003 12.2251C66.7711 11.9669 67.0038 11.7558 67.2769 11.6111C67.55 11.4665 67.8548 11.3929 68.1636 11.3972C68.4092 11.4009 68.6534 11.4367 68.8898 11.5036C69.0888 11.548 69.2791 11.6253 69.4528 11.7324L69.5546 11.8063V9.363L69.5154 9.34598C69.2123 9.23728 68.8912 9.18831 68.5696 9.20178C67.9795 9.19595 67.4066 9.40202 66.9544 9.78282C66.5312 10.1559 66.2111 10.6325 66.0252 11.1662L65.9982 11.1657ZM59.258 9.13208C58.2347 9.11139 57.2233 9.35547 56.3212 9.84081C55.4917 10.299 54.8173 10.9952 54.3843 11.8404C53.9279 12.7593 53.6996 13.7754 53.719 14.8019C53.707 15.7277 53.9295 16.6413 54.3657 17.457C54.7797 18.2302 55.4072 18.867 56.1728 19.2911C56.9835 19.7291 57.8926 19.951 58.8132 19.9355C59.8281 19.9682 60.8337 19.732 61.7287 19.2507L61.7606 19.2326V17.0111L61.6588 17.0856C61.2973 17.3488 60.8992 17.5569 60.4772 17.7034C60.1065 17.8422 59.7155 17.9183 59.32 17.9285C58.9024 17.9489 58.4852 17.8806 58.0956 17.7283C57.7061 17.5759 57.3529 17.3428 57.0591 17.0441C56.4738 16.3674 56.1746 15.4881 56.2253 14.5934C56.1809 13.6736 56.4924 12.7723 57.0946 12.0777C57.3835 11.7679 57.7351 11.5238 58.1258 11.3619C58.5165 11.2 58.9373 11.124 59.3597 11.1391C60.1921 11.1522 60.9981 11.4337 61.6588 11.942L61.76 12.016V9.6748L61.7272 9.65618C61.3755 9.47478 60.9989 9.34692 60.6097 9.27681C60.1658 9.18244 59.7134 9.13377 59.2596 9.13155L59.258 9.13208ZM52.0566 9.38003H49.6415V19.6865H52.0566V9.38003ZM50.8739 4.98982C50.4913 4.98372 50.1216 5.1292 49.845 5.39474C49.7058 5.52291 49.5954 5.67934 49.5211 5.85365C49.4468 6.02795 49.4103 6.21614 49.4141 6.40569C49.4099 6.59177 49.4455 6.77659 49.5187 6.94761C49.5919 7.11864 49.7008 7.27188 49.8381 7.39696C50.1184 7.65852 50.4892 7.80014 50.8718 7.79177C51.2555 7.79944 51.6273 7.6582 51.9098 7.39749C52.0489 7.27331 52.1595 7.12035 52.2341 6.94914C52.3087 6.77792 52.3454 6.59252 52.3418 6.40569C52.3438 6.21902 52.3074 6.03394 52.2351 5.86195C52.1628 5.68996 52.056 5.53473 51.9214 5.40591C51.7833 5.26917 51.6191 5.16183 51.4387 5.09033C51.2582 5.01883 51.0652 4.98464 50.8713 4.98982H50.8739ZM44.8452 8.61968V19.687H47.3101V5.30588H43.8989L39.5627 15.9874L35.3548 5.30588H31.8032V19.6859H34.1197V8.61862H34.1992L38.6425 19.6859H40.3918L44.7662 8.61862L44.8452 8.61968Z" fill="white" fill-opacity="0.6"/>
<path d="M12.092 11.9041H0.730469V0.5H12.092V11.9041Z" fill="white" fill-opacity="0.6"/>
<path d="M24.6368 11.9041H13.2752V0.5H24.6368V11.9041Z" fill="white" fill-opacity="0.6"/>
<path d="M12.092 24.5H0.730469V13.0959H12.092V24.5Z" fill="white" fill-opacity="0.6"/>
<path d="M24.6368 24.5H13.2752V13.0959H24.6368V24.5Z" fill="white" fill-opacity="0.6"/>
</svg>
