<svg width="102" height="33" viewBox="0 0 102 33" fill="none" xmlns="http://www.w3.org/2000/svg">
<path d="M53.9607 8.54048C53.9607 9.69374 53.0453 10.6224 51.9093 10.6224C50.7733 10.6224 49.8586 9.69374 49.8586 8.54048C49.8586 7.38723 50.7421 6.4586 51.9093 6.4586C53.0775 6.4906 53.9607 7.41955 53.9607 8.54048ZM45.5043 12.7369V13.2495C45.5043 13.2495 44.5266 11.9676 42.444 11.9676C39.0051 11.9676 36.3227 14.6264 36.3227 18.3099C36.3227 21.9617 38.9736 24.6522 42.444 24.6522C44.5581 24.6522 45.5043 23.3389 45.5043 23.3389V23.8832C45.5043 24.1395 45.6941 24.3312 45.9463 24.3312H48.5016V12.287H45.9463C45.6941 12.2879 45.5043 12.5126 45.5043 12.7369ZM45.5043 20.4561C45.0315 21.161 44.0846 21.7697 42.949 21.7697C40.9298 21.7697 39.3834 20.4884 39.3834 18.3099C39.3834 16.1317 40.9298 14.8504 42.949 14.8504C44.0534 14.8504 45.063 15.4911 45.5043 16.1637V20.4561ZM50.3951 12.2879H53.4239V24.3322H50.3951V12.2879ZM95.6413 11.9673C93.5588 11.9673 92.5804 13.2492 92.5804 13.2492V6.4906H89.5515V24.3322H92.1075C92.36 24.3322 92.5488 24.1078 92.5488 23.8835V23.3392C92.5488 23.3392 93.5272 24.6525 95.6092 24.6525C99.0487 24.6525 101.73 21.9626 101.73 18.3108C101.73 14.6591 99.0487 11.9673 95.6413 11.9673ZM95.1364 21.7373C93.9685 21.7373 93.0538 21.1293 92.5804 20.4241V16.1317C93.0538 15.4911 94.0634 14.8184 95.1364 14.8184C97.1556 14.8184 98.7017 16.0997 98.7017 18.2779C98.7017 20.4561 97.1559 21.7373 95.1364 21.7373ZM87.9743 17.1893V24.3642H84.9448V17.5413C84.9448 15.5557 84.3138 14.7544 82.611 14.7544C81.6963 14.7544 80.7494 15.2351 80.1489 15.94V24.3325H77.1208V12.2882H79.5179C79.7704 12.2882 79.9598 12.5126 79.9598 12.7369V13.2495C80.8433 12.3202 82.0106 11.9676 83.1778 11.9676C84.5032 11.9676 85.6077 12.3526 86.4912 13.1212C87.5635 14.0181 87.9743 15.1711 87.9743 17.1893ZM69.768 11.9673C67.686 11.9673 66.7076 13.2492 66.7076 13.2492V6.4906H63.6788V24.3322H66.2342C66.4867 24.3322 66.6761 24.1078 66.6761 23.8835V23.3392C66.6761 23.3392 67.6545 24.6525 69.7364 24.6525C73.1759 24.6525 75.8577 21.9626 75.8577 18.3108C75.8893 14.6588 73.2075 11.9673 69.768 11.9673ZM69.263 21.7373C68.0958 21.7373 67.1811 21.1293 66.7076 20.4241V16.1317C67.1811 15.4911 68.1907 14.8184 69.263 14.8184C71.2828 14.8184 72.8286 16.0997 72.8286 18.2779C72.8286 20.4561 71.2828 21.7373 69.263 21.7373ZM61.0598 11.9673C61.9745 11.9673 62.4479 12.1279 62.4479 12.1279V14.9784C62.4479 14.9784 59.9238 14.1135 58.3465 15.9397V24.3638H55.317V12.2879H57.873C58.1255 12.2879 58.3143 12.5122 58.3143 12.7366V13.2492C58.8829 12.5762 60.1135 11.9673 61.0598 11.9673ZM29.6025 23.2429C29.4449 22.8586 29.287 22.4423 29.1294 22.0897C28.8766 21.5133 28.6241 20.9684 28.4038 20.4561L28.3723 20.4241C26.1948 15.6191 23.8604 10.7507 21.399 5.9463L21.3044 5.75365C21.0455 5.25525 20.7932 4.75336 20.5476 4.24809C20.2317 3.67114 19.9165 3.06315 19.4116 2.4862C18.402 1.20495 16.9504 0.5 15.4047 0.5C13.8268 0.5 12.4071 1.20495 11.3663 2.42189C10.8928 2.99819 10.5455 3.60683 10.2303 4.18377C9.98401 4.68872 9.73172 5.19061 9.47345 5.68934L9.37858 5.88197C6.94897 10.6864 4.58271 15.5551 2.40559 20.3598L2.37376 20.4234C2.15311 20.9367 1.90031 21.481 1.64783 22.057C1.49023 22.4096 1.33263 22.794 1.17502 23.2103C0.764626 24.3952 0.638222 25.5165 0.796456 26.67C1.1435 29.0726 2.72079 31.0898 4.89823 31.9874C5.71871 32.34 6.57072 32.5 7.45392 32.5C7.7064 32.5 8.02162 32.468 8.27441 32.4357C9.31585 32.3077 10.3885 31.9557 11.4299 31.3471C12.7235 30.6101 13.9541 29.5535 15.3423 28.0159C16.7304 29.5535 17.9925 30.6101 19.2546 31.3471C20.2964 31.9557 21.3687 32.3077 22.4098 32.4357C22.6623 32.4683 22.9781 32.5 23.2306 32.5C24.1141 32.5 24.9974 32.34 25.786 31.9874C27.995 31.0898 29.5407 29.0406 29.8881 26.67C30.1387 25.5491 30.0126 24.4285 29.6025 23.2429ZM15.3728 24.9085C13.6688 22.7303 12.5644 20.6804 12.1861 18.9512C12.0285 18.2142 11.9967 17.5736 12.0916 16.997C12.1543 16.4843 12.344 16.0357 12.5965 15.6514C13.196 14.7871 14.2056 14.2421 15.3732 14.2421C16.541 14.2421 17.5821 14.7548 18.1501 15.6514C18.4026 16.0357 18.5917 16.4846 18.6554 16.997C18.7497 17.5739 18.7181 18.2462 18.5605 18.9512C18.1807 20.6484 17.0762 22.6986 15.3728 24.9085ZM27.9615 26.414C27.7409 28.0796 26.6364 29.5215 25.0906 30.1621C24.3335 30.4821 23.5127 30.5784 22.6929 30.4821C21.9042 30.3858 21.115 30.1295 20.2951 29.6495C19.1591 29.0082 18.0234 28.0159 16.698 26.542C18.7802 23.9478 20.0423 21.577 20.5158 19.4635C20.7367 18.4702 20.7685 17.5736 20.6734 16.7403C20.5476 15.9397 20.2633 15.2027 19.8217 14.5621C18.8429 13.1202 17.202 12.2879 15.3725 12.2879C13.5431 12.2879 11.9021 13.1529 10.924 14.5621C10.4824 15.2027 10.1981 15.9397 10.072 16.7403C9.94594 17.5736 9.97715 18.5022 10.2296 19.4635C10.7028 21.577 11.9964 23.9795 14.0471 26.574C12.7535 28.0476 11.586 29.0409 10.45 29.6815C9.62948 30.1621 8.84115 30.4184 8.0525 30.5141C7.20082 30.6104 6.38002 30.4821 5.65442 30.1941C4.10865 29.5535 3.00416 28.1116 2.78352 26.446C2.68896 25.6454 2.75168 24.8448 3.06752 23.9478C3.16177 23.6272 3.32 23.3072 3.4776 22.9229C3.69856 22.4103 3.95041 21.8653 4.20321 21.321L4.23505 21.2573C6.41186 16.4843 8.74659 11.6156 11.1762 6.87523L11.2708 6.6826C11.5236 6.20261 11.776 5.68998 12.0282 5.20935C12.2807 4.69672 12.5644 4.21609 12.9117 3.79945C13.5743 3.03147 14.4575 2.61452 15.4359 2.61452C16.4143 2.61452 17.2975 3.03147 17.9601 3.79945C18.3074 4.21705 18.5911 4.69768 18.8436 5.20935C19.0964 5.68998 19.3489 6.20261 19.6007 6.6826L19.6956 6.87523C22.0881 11.6353 24.3919 16.4409 26.6055 21.2893V21.3213C26.8583 21.8346 27.079 22.4106 27.3314 22.9239C27.489 23.3075 27.647 23.6275 27.7415 23.9482C27.9934 24.7802 28.0879 25.5814 27.9615 26.414Z" fill="white" fill-opacity="0.6"/>
</svg>
