<svg width="116" height="23" viewBox="0 0 116 23" fill="none" xmlns="http://www.w3.org/2000/svg">
<path d="M39.2868 0.773375V9.28925H27.4227V0.773375L23.1016 0.769531V22.2417H27.4227V13.0172H39.2868V22.2417H43.615V0.773375H39.2868Z" fill="white" fill-opacity="0.6"/>
<path d="M96.7695 0.773438V22.2366H115.727L113.326 18.4581H101.103V13.0172H112.939V9.37782H101.103V4.4635H113.306L115.658 0.773438H96.7695Z" fill="white" fill-opacity="0.6"/>
<path d="M7.03858 0.767578C2.54368 0.767578 0.273438 3.50018 0.273438 7.47628V15.4913C0.273438 20.0927 3.19907 22.241 7.01612 22.241L20.5733 22.2397L18.06 18.315H7.85367C5.68541 18.315 4.74078 17.5313 4.74078 15.1046V7.83284C4.74078 5.48695 5.536 4.5718 7.91138 4.5718H18.1665L20.5797 0.767578H7.03858Z" fill="white" fill-opacity="0.6"/>
<path d="M77.8063 0.76294C75.2103 0.76294 72.5495 2.32324 72.5495 6.33653V7.36773C72.5495 11.5516 75.1096 13.1478 77.671 13.1587H86.6614C87.5951 13.1587 88.3538 13.3139 88.3538 14.8922L88.3525 16.7154C88.3288 18.1333 87.6214 18.4578 86.6293 18.4578H74.8018L72.3789 22.2364H86.9077C90.4111 22.2364 92.7897 20.4933 92.7897 16.4672V14.9877C92.7897 11.095 90.5798 9.25573 87.1533 9.25573H78.5688C77.6171 9.25573 76.954 8.99601 76.954 7.58642V6.1018C76.954 4.90128 77.4087 4.46327 78.5175 4.46327L89.7814 4.45878L92.1356 0.757812L77.8063 0.76294Z" fill="white" fill-opacity="0.6"/>
<path d="M56.169 0.773438L45.9883 22.2405H50.8L52.7829 17.8071H63.8461L65.8226 22.2405H70.6554L60.451 0.773438H56.169ZM58.3039 5.2305L62.2159 14.153H54.417L58.3039 5.2305Z" fill="white" fill-opacity="0.6"/>
</svg>
