<svg width="90" height="19" viewBox="0 0 90 19" fill="none" xmlns="http://www.w3.org/2000/svg">
<path d="M15.1782 0.5H18.601V11.0214C18.601 16.557 14.9513 18.5 9.65629 18.5C4.38022 18.5 0.730469 16.557 0.730469 11.0214V0.921589C0.730469 0.62831 0.881754 0.5 1.18432 0.5H4.60715V10.8564C4.60715 14.1741 6.12 15.5489 9.65629 15.5489C13.2115 15.5489 14.7243 14.1741 14.7243 10.8564V0.921589C14.7243 0.62831 14.8756 0.5 15.1782 0.5ZM53.9261 3.3778V7.81365H62.5872C62.7385 7.81365 62.7952 7.88697 62.7385 8.03361L61.7929 10.3065C61.6984 10.5081 61.566 10.5998 61.2823 10.5998H56.1954C54.5312 10.5998 53.9261 11.0947 53.9261 12.1762V15.3106H65.6507C65.802 15.3106 65.8587 15.3839 65.802 15.5306L64.8186 17.8951C64.7241 18.0967 64.5917 18.1884 64.308 18.1884H51.4677C50.4844 18.1884 50.1062 17.8585 50.1062 17.1436V1.72811C50.1062 0.866599 50.5978 0.5 51.8838 0.5H65.6507C65.802 0.5 65.8587 0.57332 65.802 0.701629L64.8186 3.08452C64.7241 3.28615 64.5917 3.3778 64.308 3.3778H53.9261ZM43.0525 13.2943C43.0525 16.832 40.4806 18.1884 36.8687 18.1884H27.2999C26.2977 18.1884 25.9384 17.8585 25.9384 17.1436V1.72811C25.9384 0.866599 26.4111 0.5 27.716 0.5H35.4882C38.8921 0.5 42.1826 1.06823 42.1826 4.99084C42.1826 6.67719 41.5585 8.10692 40.0646 8.85845C42.1259 9.39002 43.0525 11.1864 43.0525 13.2943ZM29.7016 7.86864H35.7719C37.7764 7.86864 38.3437 7.11711 38.3437 5.57739C38.3437 4.03768 37.7764 3.30448 35.7719 3.30448H29.7016V7.86864ZM39.2136 12.9644C39.2136 11.333 38.6274 10.5265 36.4716 10.5265H31.9898C30.3256 10.5265 29.7016 11.0214 29.7016 12.1029V15.3839H36.4716C38.6274 15.3839 39.2136 14.5774 39.2136 12.9644ZM89.5159 18.1884H86.0364C85.7527 18.1884 85.6392 18.0784 85.5258 17.8951L81.8382 11.443H78.4532C76.7891 11.443 76.165 11.9379 76.165 13.0193V18.1884H72.8367C72.5342 18.1884 72.3829 18.0418 72.3829 17.7668V1.72811C72.3829 0.866599 72.8746 0.5 74.1605 0.5H81.9706C86.528 0.5 89.2701 1.65479 89.2701 5.94399C89.2701 9.26171 87.6249 10.5631 85.5825 11.0764L89.6861 17.8768C89.7618 17.9868 89.7618 18.1884 89.5159 18.1884ZM85.4312 6.01731C85.4312 4.22098 84.9206 3.34114 82.5379 3.34114H76.165V8.69348H82.5379C84.9206 8.69348 85.4312 7.83198 85.4312 6.01731Z" fill="white" fill-opacity="0.6"/>
</svg>
