<svg width="85" height="29" viewBox="0 0 85 29" fill="none" xmlns="http://www.w3.org/2000/svg">
<path d="M17.6431 13.8938C19.0394 14.0093 20.2123 14.5866 21.2176 15.6835C22.2229 16.7804 22.7256 18.2814 22.7256 20.1866C22.7256 22.4959 21.9995 24.401 20.4915 25.7866C18.9835 27.1722 16.8612 27.865 14.0128 27.865H0.273438V0.5H13.9569C16.3585 0.5 18.3133 1.19278 19.7655 2.52062C21.2176 3.90619 21.9436 5.69588 21.9436 7.94742C21.9436 9.67938 21.4968 11.0072 20.5474 12.0464C19.5979 13.0856 18.6484 13.6052 17.5873 13.7206L17.6431 13.8938ZM6.80801 11.8155H12.5048C13.4543 11.8155 14.2362 11.5268 14.8506 10.9495C15.4091 10.3722 15.7442 9.67938 15.7442 8.69794C15.7442 7.83196 15.4649 7.19691 14.9064 6.67732C14.3479 6.15773 13.6218 5.9268 12.7841 5.9268H6.80801V11.8155ZM12.8399 22.4381C13.8452 22.4381 14.683 22.1495 15.2415 21.6299C15.8 21.1103 16.0793 20.3598 16.0793 19.3784C16.0793 18.4546 15.8 17.7619 15.1857 17.2423C14.6272 16.7227 13.8452 16.434 12.9516 16.434H6.80801V22.4381H12.8399ZM45.3452 27.865H39.0341V25.9021C37.4702 27.634 35.4038 28.5 32.9463 28.5C30.6006 28.5 28.7575 27.6918 27.3612 26.133C25.9649 24.5742 25.2389 22.4959 25.2389 19.9557V7.3701H31.4942V18.5701C31.4942 19.7825 31.8293 20.7639 32.4436 21.5144C33.058 22.2649 33.8958 22.6113 34.9011 22.6113C36.1857 22.6113 37.191 22.1495 37.9171 21.2258C38.6431 20.3021 38.9782 18.8588 38.9782 16.8959V7.3701H45.2894L45.3452 27.865ZM64.8373 27.865H48.0819V26.6526L55.9569 12.566H48.3053V7.3701H64.7256V8.58247L56.8506 22.6691H64.7814V27.865H64.8373ZM84.2734 27.865H67.574V26.6526L75.3931 12.566H67.7415V7.3701H84.1617V8.58247L76.2867 22.6691H84.2176L84.2734 27.865Z" fill="white" fill-opacity="0.6"/>
</svg>
