<svg width="182" height="71" viewBox="0 0 182 71" fill="none" xmlns="http://www.w3.org/2000/svg">
<rect x="1" y="1" width="180" height="69" rx="11" fill="#EFEFEF"/>
<g clip-path="url(#clip0_2580_32998)">
<path d="M23.0917 46.275V44.8344C23.0917 44.2821 22.7554 43.922 22.1791 43.922C21.891 43.922 21.5789 44.018 21.3628 44.3302C21.1948 44.0661 20.9547 43.922 20.5945 43.922C20.3543 43.922 20.1144 43.994 19.9222 44.2581V43.97H19.418V46.275H19.9222V45.0024C19.9222 44.5943 20.1383 44.4022 20.4745 44.4022C20.8105 44.4022 20.9787 44.6183 20.9787 45.0024V46.275H21.483V45.0024C21.483 44.5943 21.7229 44.4022 22.0351 44.4022C22.3713 44.4022 22.5393 44.6183 22.5393 45.0024V46.275H23.0917ZM30.5588 43.97H29.7425V43.2737H29.2383V43.97H28.7821V44.4261H29.2382V45.4827C29.2382 46.011 29.4543 46.323 30.0306 46.323C30.2467 46.323 30.4867 46.251 30.6549 46.155L30.5108 45.7228C30.3667 45.8188 30.1987 45.8429 30.0786 45.8429C29.8386 45.8429 29.7425 45.6988 29.7425 45.4586V44.4261H30.5588V43.97ZM34.8327 43.9219C34.5446 43.9219 34.3526 44.0661 34.2325 44.2581V43.97H33.7283V46.275H34.2325V44.9785C34.2325 44.5943 34.4005 44.3782 34.7126 44.3782C34.8087 44.3782 34.9288 44.4023 35.0248 44.4262L35.1688 43.9461C35.0728 43.922 34.9288 43.922 34.8327 43.922V43.9219ZM28.3739 44.1621C28.1337 43.994 27.7976 43.922 27.4375 43.922C26.8613 43.922 26.4771 44.2101 26.4771 44.6663C26.4771 45.0505 26.7652 45.2666 27.2695 45.3386L27.5095 45.3627C27.7737 45.4106 27.9177 45.4827 27.9177 45.6028C27.9177 45.7708 27.7257 45.8909 27.3894 45.8909C27.0533 45.8909 26.7892 45.7708 26.6211 45.6508L26.381 46.0349C26.6451 46.227 27.0053 46.323 27.3654 46.323C28.0377 46.323 28.4219 46.011 28.4219 45.5787C28.4219 45.1705 28.1098 44.9544 27.6295 44.8824L27.3894 44.8584C27.1733 44.8343 27.0053 44.7864 27.0053 44.6424C27.0053 44.4742 27.1733 44.3782 27.4375 44.3782C27.7257 44.3782 28.0138 44.4982 28.1578 44.5703L28.3739 44.1621ZM41.7718 43.922C41.4836 43.922 41.2915 44.0661 41.1715 44.2581V43.97H40.6672V46.275H41.1715V44.9785C41.1715 44.5943 41.3396 44.3782 41.6516 44.3782C41.7478 44.3782 41.8678 44.4023 41.9639 44.4262L42.1079 43.9461C42.0119 43.922 41.8678 43.922 41.7718 43.922ZM35.337 45.1225C35.337 45.8188 35.8171 46.323 36.5615 46.323C36.8976 46.323 37.1377 46.251 37.3778 46.059L37.1377 45.6508C36.9456 45.7948 36.7536 45.8668 36.5375 45.8668C36.1293 45.8668 35.8412 45.5787 35.8412 45.1225C35.8412 44.6904 36.1293 44.4022 36.5375 44.3782C36.7536 44.3782 36.9456 44.4502 37.1377 44.5943L37.3778 44.1861C37.1377 43.994 36.8976 43.922 36.5615 43.922C35.8171 43.922 35.337 44.4262 35.337 45.1225ZM39.995 45.1225V43.97H39.4908V44.2581C39.3227 44.0421 39.0826 43.922 38.7705 43.922C38.1222 43.922 37.618 44.4262 37.618 45.1225C37.618 45.8188 38.1222 46.323 38.7705 46.323C39.1066 46.323 39.3468 46.203 39.4908 45.9869V46.275H39.995V45.1225ZM38.1461 45.1225C38.1461 44.7143 38.4103 44.3782 38.8424 44.3782C39.2506 44.3782 39.5388 44.6904 39.5388 45.1225C39.5388 45.5307 39.2506 45.8668 38.8424 45.8668C38.4103 45.8427 38.1461 45.5307 38.1461 45.1225ZM32.1196 43.922C31.4472 43.922 30.967 44.4022 30.967 45.1225C30.967 45.8429 31.4471 46.323 32.1435 46.323C32.4796 46.323 32.8159 46.227 33.08 46.011L32.8398 45.6508C32.6478 45.7948 32.4077 45.8909 32.1676 45.8909C31.8554 45.8909 31.5433 45.7468 31.4712 45.3385H33.176V45.1466C33.2001 44.4022 32.7678 43.922 32.1195 43.922H32.1196ZM32.1196 44.3541C32.4316 44.3541 32.6479 44.5463 32.6958 44.9065H31.4953C31.5433 44.5943 31.7594 44.3541 32.1196 44.3541ZM44.629 45.1225V43.0576H44.1248V44.2581C43.9567 44.0421 43.7166 43.922 43.4045 43.922C42.7562 43.922 42.252 44.4262 42.252 45.1225C42.252 45.8188 42.7562 46.323 43.4045 46.323C43.7407 46.323 43.9808 46.203 44.1248 45.9869V46.275H44.629V45.1225ZM42.7803 45.1225C42.7803 44.7143 43.0443 44.3782 43.4765 44.3782C43.8847 44.3782 44.1728 44.6904 44.1728 45.1225C44.1728 45.5307 43.8847 45.8668 43.4765 45.8668C43.0443 45.8427 42.7803 45.5307 42.7803 45.1225ZM25.9248 45.1225V43.97H25.4206V44.2581C25.2525 44.0421 25.0124 43.922 24.7002 43.922C24.052 43.922 23.5477 44.4262 23.5477 45.1225C23.5477 45.8188 24.052 46.323 24.7002 46.323C25.0365 46.323 25.2765 46.203 25.4206 45.9869V46.275H25.9248V45.1225ZM24.052 45.1225C24.052 44.7143 24.3161 44.3782 24.7483 44.3782C25.1564 44.3782 25.4446 44.6904 25.4446 45.1225C25.4446 45.5307 25.1564 45.8668 24.7483 45.8668C24.3161 45.8427 24.052 45.5307 24.052 45.1225Z" fill="#1A1919"/>
<path d="M28.2031 26.4658H35.7664V40.0558H28.2031V26.4658Z" fill="#FF5F00"/>
<path d="M28.6847 33.261C28.6847 30.4998 29.9813 28.0507 31.9741 26.466C30.5095 25.3135 28.6608 24.6172 26.6439 24.6172C21.8656 24.6172 18 28.4828 18 33.261C18 38.039 21.8656 41.9048 26.6438 41.9048C28.6607 41.9048 30.5094 41.2085 31.9741 40.0559C29.9813 38.4952 28.6847 36.0222 28.6847 33.261Z" fill="#EB001B"/>
<path d="M45.9741 33.261C45.9741 38.039 42.1084 41.9048 37.3303 41.9048C35.3134 41.9048 33.4646 41.2085 32 40.0559C34.0169 38.4713 35.2895 36.0222 35.2895 33.261C35.2895 30.4998 33.9928 28.0507 32 26.466C33.4645 25.3135 35.3134 24.6172 37.3303 24.6172C42.1084 24.6172 45.9742 28.5069 45.9742 33.261H45.9741Z" fill="#F79E1B"/>
</g>
<path d="M77.626 30.822V40.578H78.094C78.478 40.578 78.67 40.74 78.67 41.064V41.514C78.67 41.838 78.478 42 78.094 42H75.538C75.142 42 74.944 41.838 74.944 41.514V41.064C74.944 40.74 75.142 40.578 75.538 40.578H76.006V31.65L72.514 38.256C72.406 38.484 72.232 38.598 71.992 38.598H71.668C71.428 38.598 71.254 38.484 71.146 38.256L67.654 31.65V40.578H68.122C68.518 40.578 68.716 40.74 68.716 41.064V41.514C68.716 41.838 68.518 42 68.122 42H65.71C65.314 42 65.116 41.838 65.116 41.514V41.064C65.116 40.74 65.314 40.578 65.71 40.578H66.178V30.822H65.71C65.314 30.822 65.116 30.66 65.116 30.336V29.886C65.116 29.562 65.314 29.4 65.71 29.4H67.798C68.05 29.4 68.23 29.514 68.338 29.742L71.92 36.528L75.484 29.742C75.592 29.514 75.766 29.4 76.006 29.4H78.094C78.478 29.4 78.67 29.562 78.67 29.886V30.336C78.67 30.66 78.478 30.822 78.094 30.822H77.626ZM88.48 40.578C88.864 40.578 89.056 40.74 89.056 41.064V41.514C89.056 41.838 88.864 42 88.48 42H87.04C86.86 42 86.704 41.94 86.572 41.82C86.452 41.688 86.392 41.526 86.392 41.334V40.2C86.164 40.764 85.768 41.238 85.204 41.622C84.652 41.994 84.064 42.18 83.44 42.18C82.6 42.18 81.922 41.94 81.406 41.46C80.89 40.968 80.632 40.32 80.632 39.516C80.632 38.676 80.914 38.028 81.478 37.572C82.054 37.116 82.87 36.888 83.926 36.888C84.73 36.888 85.552 36.984 86.392 37.176V36.366C86.392 35.622 86.218 35.07 85.87 34.71C85.522 34.35 84.982 34.17 84.25 34.17C83.686 34.17 83.266 34.278 82.99 34.494C83.074 34.638 83.116 34.794 83.116 34.962C83.116 35.238 83.02 35.472 82.828 35.664C82.636 35.856 82.402 35.952 82.126 35.952C81.802 35.952 81.544 35.85 81.352 35.646C81.16 35.442 81.064 35.166 81.064 34.818C81.064 34.23 81.37 33.75 81.982 33.378C82.594 33.006 83.374 32.82 84.322 32.82C85.51 32.82 86.416 33.138 87.04 33.774C87.676 34.41 87.994 35.31 87.994 36.474V40.578H88.48ZM83.818 40.866C84.274 40.866 84.694 40.746 85.078 40.506C85.474 40.254 85.786 39.924 86.014 39.516C86.254 39.096 86.38 38.64 86.392 38.148C85.852 38.064 85.108 38.022 84.16 38.022C82.864 38.022 82.216 38.502 82.216 39.462C82.216 39.906 82.36 40.254 82.648 40.506C82.936 40.746 83.326 40.866 83.818 40.866ZM94.7405 36.762C95.8685 37.086 96.6665 37.458 97.1345 37.878C97.6025 38.286 97.8365 38.832 97.8365 39.516C97.8365 40.032 97.6865 40.494 97.3865 40.902C97.0865 41.298 96.6605 41.61 96.1085 41.838C95.5685 42.066 94.9445 42.18 94.2365 42.18C93.1205 42.18 92.2265 41.97 91.5545 41.55C90.8945 41.118 90.5645 40.56 90.5645 39.876C90.5645 39.528 90.6605 39.252 90.8525 39.048C91.0445 38.844 91.3025 38.742 91.6265 38.742C91.9025 38.742 92.1305 38.838 92.3105 39.03C92.5025 39.222 92.5985 39.456 92.5985 39.732C92.5985 39.984 92.5205 40.188 92.3645 40.344C92.6525 40.752 93.2705 40.956 94.2185 40.956C94.8665 40.956 95.3585 40.842 95.6945 40.614C96.0425 40.386 96.2165 40.08 96.2165 39.696C96.2165 39.444 96.1625 39.24 96.0545 39.084C95.9465 38.916 95.7545 38.772 95.4785 38.652C95.2145 38.52 94.8065 38.376 94.2545 38.22C93.3545 37.968 92.6525 37.716 92.1485 37.464C91.6565 37.2 91.3025 36.912 91.0865 36.6C90.8705 36.276 90.7625 35.874 90.7625 35.394C90.7625 34.89 90.9125 34.446 91.2125 34.062C91.5125 33.666 91.9265 33.36 92.4545 33.144C92.9945 32.928 93.6065 32.82 94.2905 32.82C95.3585 32.82 96.1925 33.012 96.7925 33.396C97.3925 33.768 97.6925 34.29 97.6925 34.962C97.6925 35.31 97.5965 35.592 97.4045 35.808C97.2125 36.012 96.9605 36.114 96.6485 36.114C96.3605 36.114 96.1205 36.018 95.9285 35.826C95.7485 35.634 95.6585 35.394 95.6585 35.106C95.6585 34.854 95.7365 34.65 95.8925 34.494C95.6285 34.194 95.0885 34.044 94.2725 34.044C93.7085 34.044 93.2525 34.164 92.9045 34.404C92.5565 34.644 92.3825 34.956 92.3825 35.34C92.3825 35.544 92.4485 35.718 92.5805 35.862C92.7125 36.006 92.9405 36.144 93.2645 36.276C93.6005 36.408 94.0925 36.57 94.7405 36.762ZM106.059 39.048C106.251 39.048 106.419 39.108 106.563 39.228C106.707 39.336 106.779 39.474 106.779 39.642C106.779 39.834 106.719 40.05 106.599 40.29C106.323 40.842 105.993 41.298 105.609 41.658C105.225 42.006 104.697 42.18 104.025 42.18C103.041 42.18 102.291 41.886 101.775 41.298C101.271 40.71 101.019 39.852 101.019 38.724V34.404H99.9027C99.6867 34.404 99.5187 34.35 99.3987 34.242C99.2907 34.134 99.2367 33.984 99.2367 33.792V33.594C99.2367 33.402 99.2907 33.258 99.3987 33.162C99.5187 33.054 99.6867 33 99.9027 33H101.019V31.344C101.019 31.128 101.073 30.966 101.181 30.858C101.301 30.738 101.463 30.678 101.667 30.678H102.009C102.213 30.678 102.369 30.738 102.477 30.858C102.585 30.966 102.639 31.128 102.639 31.344V33H104.979C105.195 33 105.357 33.054 105.465 33.162C105.585 33.258 105.645 33.402 105.645 33.594V33.792C105.645 33.984 105.585 34.134 105.465 34.242C105.357 34.35 105.195 34.404 104.979 34.404H102.639V38.688C102.639 40.08 103.119 40.776 104.079 40.776C104.451 40.776 104.727 40.68 104.907 40.488C105.099 40.284 105.297 39.948 105.501 39.48C105.585 39.324 105.663 39.216 105.735 39.156C105.819 39.084 105.927 39.048 106.059 39.048ZM116.366 37.05C116.366 37.11 116.348 37.374 116.312 37.842H109.922C109.982 38.754 110.246 39.474 110.714 40.002C111.182 40.518 111.806 40.776 112.586 40.776C113.114 40.776 113.534 40.692 113.846 40.524C114.158 40.356 114.452 40.056 114.728 39.624C114.824 39.48 114.914 39.378 114.998 39.318C115.094 39.258 115.202 39.228 115.322 39.228C115.502 39.228 115.658 39.288 115.79 39.408C115.934 39.516 116.006 39.654 116.006 39.822C116.006 40.05 115.922 40.284 115.754 40.524C115.406 41.088 114.974 41.508 114.458 41.784C113.942 42.048 113.3 42.18 112.532 42.18C111.68 42.18 110.93 41.982 110.282 41.586C109.646 41.19 109.148 40.632 108.788 39.912C108.44 39.192 108.266 38.364 108.266 37.428C108.266 36.504 108.44 35.694 108.788 34.998C109.136 34.302 109.628 33.768 110.264 33.396C110.9 33.012 111.638 32.82 112.478 32.82C113.642 32.82 114.578 33.192 115.286 33.936C116.006 34.68 116.366 35.718 116.366 37.05ZM112.442 34.152C111.734 34.152 111.164 34.368 110.732 34.8C110.312 35.22 110.054 35.832 109.958 36.636H114.728C114.716 34.98 113.954 34.152 112.442 34.152ZM123.525 32.82C124.005 32.82 124.371 32.934 124.623 33.162C124.875 33.378 125.001 33.684 125.001 34.08C125.001 34.392 124.899 34.656 124.695 34.872C124.491 35.076 124.227 35.178 123.903 35.178C123.615 35.178 123.375 35.094 123.183 34.926C122.991 34.746 122.883 34.518 122.859 34.242C122.487 34.278 122.145 34.458 121.833 34.782C121.521 35.094 121.269 35.502 121.077 36.006C120.897 36.498 120.807 37.026 120.807 37.59V40.578H121.653C122.049 40.578 122.247 40.74 122.247 41.064V41.514C122.247 41.838 122.049 42 121.653 42H118.719C118.335 42 118.143 41.838 118.143 41.514V41.064C118.143 40.74 118.335 40.578 118.719 40.578H119.187V34.422H118.719C118.335 34.422 118.143 34.26 118.143 33.936V33.486C118.143 33.162 118.335 33 118.719 33H120.141C120.333 33 120.489 33.066 120.609 33.198C120.741 33.318 120.807 33.474 120.807 33.666V35.25C121.023 34.506 121.371 33.918 121.851 33.486C122.343 33.042 122.901 32.82 123.525 32.82ZM133.234 39.228C133.414 39.228 133.57 39.288 133.702 39.408C133.846 39.516 133.918 39.654 133.918 39.822C133.918 40.05 133.834 40.284 133.666 40.524C133.318 41.088 132.886 41.508 132.37 41.784C131.854 42.048 131.212 42.18 130.444 42.18C129.592 42.18 128.842 41.982 128.194 41.586C127.558 41.19 127.06 40.632 126.7 39.912C126.352 39.192 126.178 38.364 126.178 37.428C126.178 36.504 126.352 35.694 126.7 34.998C127.06 34.302 127.558 33.768 128.194 33.396C128.83 33.012 129.568 32.82 130.408 32.82C131.104 32.82 131.722 32.94 132.262 33.18C132.802 33.42 133.222 33.762 133.522 34.206C133.822 34.638 133.972 35.13 133.972 35.682C133.972 36.054 133.87 36.348 133.666 36.564C133.462 36.78 133.192 36.888 132.856 36.888C132.556 36.888 132.304 36.792 132.1 36.6C131.908 36.408 131.812 36.168 131.812 35.88C131.812 35.544 131.926 35.274 132.154 35.07C132.01 34.794 131.782 34.584 131.47 34.44C131.17 34.296 130.798 34.224 130.354 34.224C129.538 34.224 128.908 34.5 128.464 35.052C128.032 35.604 127.816 36.39 127.816 37.41C127.816 38.454 128.05 39.276 128.518 39.876C128.998 40.476 129.658 40.776 130.498 40.776C131.026 40.776 131.446 40.692 131.758 40.524C132.07 40.356 132.364 40.056 132.64 39.624C132.736 39.48 132.826 39.378 132.91 39.318C133.006 39.258 133.114 39.228 133.234 39.228ZM143.605 40.578C143.989 40.578 144.181 40.74 144.181 41.064V41.514C144.181 41.838 143.989 42 143.605 42H142.165C141.985 42 141.829 41.94 141.697 41.82C141.577 41.688 141.517 41.526 141.517 41.334V40.2C141.289 40.764 140.893 41.238 140.329 41.622C139.777 41.994 139.189 42.18 138.565 42.18C137.725 42.18 137.047 41.94 136.531 41.46C136.015 40.968 135.757 40.32 135.757 39.516C135.757 38.676 136.039 38.028 136.603 37.572C137.179 37.116 137.995 36.888 139.051 36.888C139.855 36.888 140.677 36.984 141.517 37.176V36.366C141.517 35.622 141.343 35.07 140.995 34.71C140.647 34.35 140.107 34.17 139.375 34.17C138.811 34.17 138.391 34.278 138.115 34.494C138.199 34.638 138.241 34.794 138.241 34.962C138.241 35.238 138.145 35.472 137.953 35.664C137.761 35.856 137.527 35.952 137.251 35.952C136.927 35.952 136.669 35.85 136.477 35.646C136.285 35.442 136.189 35.166 136.189 34.818C136.189 34.23 136.495 33.75 137.107 33.378C137.719 33.006 138.499 32.82 139.447 32.82C140.635 32.82 141.541 33.138 142.165 33.774C142.801 34.41 143.119 35.31 143.119 36.474V40.578H143.605ZM138.943 40.866C139.399 40.866 139.819 40.746 140.203 40.506C140.599 40.254 140.911 39.924 141.139 39.516C141.379 39.096 141.505 38.64 141.517 38.148C140.977 38.064 140.233 38.022 139.285 38.022C137.989 38.022 137.341 38.502 137.341 39.462C137.341 39.906 137.485 40.254 137.773 40.506C138.061 40.746 138.451 40.866 138.943 40.866ZM151.017 32.82C151.497 32.82 151.863 32.934 152.115 33.162C152.367 33.378 152.493 33.684 152.493 34.08C152.493 34.392 152.391 34.656 152.187 34.872C151.983 35.076 151.719 35.178 151.395 35.178C151.107 35.178 150.867 35.094 150.675 34.926C150.483 34.746 150.375 34.518 150.351 34.242C149.979 34.278 149.637 34.458 149.325 34.782C149.013 35.094 148.761 35.502 148.569 36.006C148.389 36.498 148.299 37.026 148.299 37.59V40.578H149.145C149.541 40.578 149.739 40.74 149.739 41.064V41.514C149.739 41.838 149.541 42 149.145 42H146.211C145.827 42 145.635 41.838 145.635 41.514V41.064C145.635 40.74 145.827 40.578 146.211 40.578H146.679V34.422H146.211C145.827 34.422 145.635 34.26 145.635 33.936V33.486C145.635 33.162 145.827 33 146.211 33H147.633C147.825 33 147.981 33.066 148.101 33.198C148.233 33.318 148.299 33.474 148.299 33.666V35.25C148.515 34.506 148.863 33.918 149.343 33.486C149.835 33.042 150.393 32.82 151.017 32.82ZM162.328 40.578C162.724 40.578 162.922 40.74 162.922 41.064V41.514C162.922 41.838 162.724 42 162.328 42H160.924C160.732 42 160.57 41.94 160.438 41.82C160.318 41.688 160.258 41.526 160.258 41.334V40.2C160.042 40.764 159.652 41.238 159.088 41.622C158.536 41.994 157.948 42.18 157.324 42.18C156.604 42.18 155.968 41.994 155.416 41.622C154.876 41.25 154.456 40.722 154.156 40.038C153.868 39.342 153.724 38.532 153.724 37.608C153.724 36.12 154.072 34.95 154.768 34.098C155.476 33.246 156.442 32.82 157.666 32.82C158.17 32.82 158.65 32.94 159.106 33.18C159.562 33.42 159.946 33.756 160.258 34.188V30.102H159.79C159.394 30.102 159.196 29.94 159.196 29.616V29.166C159.196 28.842 159.394 28.68 159.79 28.68H161.23C161.41 28.68 161.56 28.746 161.68 28.878C161.8 28.998 161.86 29.154 161.86 29.346V40.578H162.328ZM157.684 40.776C158.152 40.776 158.584 40.65 158.98 40.398C159.376 40.134 159.688 39.78 159.916 39.336C160.144 38.892 160.258 38.406 160.258 37.878V35.538C159.922 35.118 159.544 34.794 159.124 34.566C158.716 34.338 158.284 34.224 157.828 34.224C157.024 34.224 156.412 34.524 155.992 35.124C155.572 35.712 155.362 36.57 155.362 37.698C155.362 38.67 155.566 39.426 155.974 39.966C156.382 40.506 156.952 40.776 157.684 40.776Z" fill="#1A1919"/>
<rect x="1" y="1" width="180" height="69" rx="11" stroke="#1A1919" stroke-width="2"/>
<defs>
<clipPath id="clip0_2580_32998">
<rect width="28" height="21.7656" fill="white" transform="translate(18 24.6172)"/>
</clipPath>
</defs>
</svg>
