<svg width="139" height="71" viewBox="0 0 139 71" fill="none" xmlns="http://www.w3.org/2000/svg">
<rect width="139" height="71" rx="12" fill="#EFEFEF"/>
<g clip-path="url(#clip0_2580_33009)">
<path d="M41.7528 23.679C40.2288 22.2065 37.4739 21.5752 33.9495 21.5752H23.7207C23.372 21.5752 23.0348 21.6807 22.7696 21.8726C22.5044 22.0645 22.3287 22.3304 22.274 22.6223L18.015 45.5199C17.9303 45.9715 18.3428 46.3803 18.8826 46.3803H25.1975L26.7834 37.8532L26.7342 38.1202C26.8472 37.5175 27.4553 37.0729 28.1755 37.0729H31.1763C37.0714 37.0729 41.6873 35.0432 43.0357 29.1716C43.0757 28.998 43.1104 28.829 43.1404 28.6638C42.9702 28.5874 42.9702 28.5874 43.1404 28.6638C43.5419 26.4936 43.1376 25.0164 41.7528 23.679Z" fill="#27346A"/>
<path d="M29.1998 27.8821C29.3724 27.8124 29.5612 27.7763 29.7524 27.7764H37.7716C38.7212 27.7764 39.6069 27.8287 40.4163 27.9392C40.6428 27.9698 40.8681 28.0063 41.0919 28.0488C41.4091 28.1081 41.7227 28.1807 42.0314 28.2664C42.4293 28.379 42.7999 28.5102 43.1405 28.6638C43.5419 26.4928 43.1376 25.0164 41.7528 23.679C40.2279 22.2065 37.4739 21.5752 33.9495 21.5752H23.7198C22.9996 21.5752 22.3869 22.0197 22.274 22.6223L18.015 45.5191C17.9303 45.9713 18.3428 46.3797 18.8818 46.3797H25.1975L28.4878 28.6924C28.5202 28.5185 28.6019 28.3539 28.7259 28.2128C28.8499 28.0716 29.0125 27.9581 29.1998 27.8821Z" fill="#27346A"/>
<path d="M43.034 29.1719C41.6856 35.0426 37.0698 37.0731 31.1745 37.0731H28.1729C27.4527 37.0731 26.8445 37.5177 26.7326 38.1205L24.7596 48.7229C24.6859 49.1181 25.0464 49.4761 25.518 49.4761H30.8413C31.1462 49.4761 31.4411 49.3838 31.6729 49.2159C31.9048 49.0479 32.0583 48.8154 32.106 48.5601L32.1578 48.3302L33.1611 42.9401L33.2258 42.6422C33.2734 42.3869 33.427 42.1544 33.6588 41.9865C33.8906 41.8185 34.1854 41.7262 34.4904 41.7262H35.287C40.4438 41.7262 44.4815 39.9503 45.6615 34.8142C46.154 32.6679 45.8992 30.8759 44.5963 29.6172C44.2011 29.2359 43.7103 28.9211 43.1386 28.6641C43.1077 28.83 43.0741 28.9982 43.034 29.1719Z" fill="#2790C3"/>
<path d="M41.7285 28.187C41.5182 28.135 41.306 28.0889 41.0921 28.0489C40.8682 28.0071 40.6429 27.9708 40.4165 27.94C39.6063 27.8288 38.7212 27.7764 37.7708 27.7764H29.7526C29.5612 27.776 29.3723 27.8124 29.1999 27.8829C29.0125 27.9587 28.8497 28.0722 28.7256 28.2134C28.6015 28.3546 28.5199 28.5193 28.4879 28.6932L26.7836 37.8533L26.7344 38.1203C26.8465 37.5176 27.4546 37.073 28.1748 37.073H31.1765C37.0716 37.073 41.6875 35.0433 43.0358 29.1717C43.076 28.9981 43.1097 28.8298 43.1406 28.6639C42.7992 28.5111 42.4296 28.3791 42.0316 28.2672C41.9311 28.239 41.8301 28.2122 41.7286 28.187" fill="#1F264F"/>
</g>
<path d="M69.76 29.4C71.308 29.4 72.478 29.712 73.27 30.336C74.062 30.948 74.458 31.86 74.458 33.072C74.458 34.308 74.02 35.274 73.144 35.97C72.28 36.654 71.068 36.996 69.508 36.996H67.798V40.578H68.266C68.662 40.578 68.86 40.74 68.86 41.064V41.514C68.86 41.838 68.662 42 68.266 42H65.71C65.314 42 65.116 41.838 65.116 41.514V41.064C65.116 40.74 65.314 40.578 65.71 40.578H66.178V30.822H65.71C65.314 30.822 65.116 30.66 65.116 30.336V29.886C65.116 29.562 65.314 29.4 65.71 29.4H69.76ZM69.382 35.574C70.594 35.574 71.464 35.382 71.992 34.998C72.532 34.602 72.802 33.972 72.802 33.108C72.802 32.316 72.556 31.74 72.064 31.38C71.572 31.008 70.786 30.822 69.706 30.822H67.798V35.574H69.382ZM83.9624 40.578C84.3464 40.578 84.5384 40.74 84.5384 41.064V41.514C84.5384 41.838 84.3464 42 83.9624 42H82.5224C82.3424 42 82.1864 41.94 82.0544 41.82C81.9344 41.688 81.8744 41.526 81.8744 41.334V40.2C81.6464 40.764 81.2504 41.238 80.6864 41.622C80.1344 41.994 79.5464 42.18 78.9224 42.18C78.0824 42.18 77.4044 41.94 76.8884 41.46C76.3724 40.968 76.1144 40.32 76.1144 39.516C76.1144 38.676 76.3964 38.028 76.9604 37.572C77.5364 37.116 78.3524 36.888 79.4084 36.888C80.2124 36.888 81.0344 36.984 81.8744 37.176V36.366C81.8744 35.622 81.7004 35.07 81.3524 34.71C81.0044 34.35 80.4644 34.17 79.7324 34.17C79.1684 34.17 78.7484 34.278 78.4724 34.494C78.5564 34.638 78.5984 34.794 78.5984 34.962C78.5984 35.238 78.5024 35.472 78.3104 35.664C78.1184 35.856 77.8844 35.952 77.6084 35.952C77.2844 35.952 77.0264 35.85 76.8344 35.646C76.6424 35.442 76.5464 35.166 76.5464 34.818C76.5464 34.23 76.8524 33.75 77.4644 33.378C78.0764 33.006 78.8564 32.82 79.8044 32.82C80.9924 32.82 81.8984 33.138 82.5224 33.774C83.1584 34.41 83.4764 35.31 83.4764 36.474V40.578H83.9624ZM79.3004 40.866C79.7564 40.866 80.1764 40.746 80.5604 40.506C80.9564 40.254 81.2684 39.924 81.4964 39.516C81.7364 39.096 81.8624 38.64 81.8744 38.148C81.3344 38.064 80.5904 38.022 79.6424 38.022C78.3464 38.022 77.6984 38.502 77.6984 39.462C77.6984 39.906 77.8424 40.254 78.1304 40.506C78.4184 40.746 78.8084 40.866 79.3004 40.866ZM94.0687 33C94.4647 33 94.6627 33.162 94.6627 33.486V33.936C94.6627 34.26 94.4647 34.422 94.0687 34.422H93.6007L89.9107 43.494C89.4667 44.55 89.0287 45.282 88.5967 45.69C88.1767 46.11 87.6367 46.32 86.9767 46.32C86.4607 46.32 86.0347 46.176 85.6987 45.888C85.3747 45.612 85.2127 45.258 85.2127 44.826C85.2127 44.514 85.3087 44.262 85.5007 44.07C85.7047 43.878 85.9627 43.782 86.2747 43.782C86.5507 43.782 86.7847 43.878 86.9767 44.07C87.1687 44.262 87.2647 44.496 87.2647 44.772C87.2647 44.832 87.2527 44.91 87.2287 45.006C87.4567 44.958 87.6607 44.808 87.8407 44.556C88.0207 44.316 88.2187 43.926 88.4347 43.386L89.1007 41.712L86.1127 34.422H85.6447C85.2487 34.422 85.0507 34.26 85.0507 33.936V33.486C85.0507 33.162 85.2487 33 85.6447 33H88.1107C88.4947 33 88.6867 33.162 88.6867 33.486V33.936C88.6867 34.26 88.4947 34.422 88.1107 34.422H87.8047L89.9467 39.768L92.0527 34.422H91.6927C91.2967 34.422 91.0987 34.26 91.0987 33.936V33.486C91.0987 33.162 91.2967 33 91.6927 33H94.0687ZM101.395 32.82C102.127 32.82 102.763 33.006 103.303 33.378C103.843 33.75 104.263 34.284 104.563 34.98C104.863 35.664 105.013 36.468 105.013 37.392C105.013 38.88 104.659 40.05 103.951 40.902C103.243 41.754 102.277 42.18 101.053 42.18C100.561 42.18 100.087 42.066 99.6309 41.838C99.1749 41.598 98.7849 41.262 98.4609 40.83V44.718H98.9289C99.3249 44.718 99.5229 44.88 99.5229 45.204V45.654C99.5229 45.978 99.3249 46.14 98.9289 46.14H96.3909C95.9949 46.14 95.7969 45.978 95.7969 45.654V45.204C95.7969 44.88 95.9949 44.718 96.3909 44.718H96.8589V34.422H96.3909C95.9949 34.422 95.7969 34.26 95.7969 33.936V33.486C95.7969 33.162 95.9949 33 96.3909 33H97.8309C98.0109 33 98.1609 33.066 98.2809 33.198C98.4009 33.318 98.4609 33.474 98.4609 33.666V34.8C98.6769 34.236 99.0609 33.768 99.6129 33.396C100.177 33.012 100.771 32.82 101.395 32.82ZM100.891 40.776C101.695 40.776 102.307 40.482 102.727 39.894C103.159 39.294 103.375 38.43 103.375 37.302C103.375 36.33 103.171 35.574 102.763 35.034C102.355 34.494 101.779 34.224 101.035 34.224C100.567 34.224 100.135 34.356 99.7389 34.62C99.3429 34.872 99.0309 35.22 98.8029 35.664C98.5749 36.108 98.4609 36.594 98.4609 37.122V39.444C98.7849 39.876 99.1569 40.206 99.5769 40.434C99.9969 40.662 100.435 40.776 100.891 40.776ZM114.707 40.578C115.091 40.578 115.283 40.74 115.283 41.064V41.514C115.283 41.838 115.091 42 114.707 42H113.267C113.087 42 112.931 41.94 112.799 41.82C112.679 41.688 112.619 41.526 112.619 41.334V40.2C112.391 40.764 111.995 41.238 111.431 41.622C110.879 41.994 110.291 42.18 109.667 42.18C108.827 42.18 108.149 41.94 107.633 41.46C107.117 40.968 106.859 40.32 106.859 39.516C106.859 38.676 107.141 38.028 107.705 37.572C108.281 37.116 109.097 36.888 110.153 36.888C110.957 36.888 111.779 36.984 112.619 37.176V36.366C112.619 35.622 112.445 35.07 112.097 34.71C111.749 34.35 111.209 34.17 110.477 34.17C109.913 34.17 109.493 34.278 109.217 34.494C109.301 34.638 109.343 34.794 109.343 34.962C109.343 35.238 109.247 35.472 109.055 35.664C108.863 35.856 108.629 35.952 108.353 35.952C108.029 35.952 107.771 35.85 107.579 35.646C107.387 35.442 107.291 35.166 107.291 34.818C107.291 34.23 107.597 33.75 108.209 33.378C108.821 33.006 109.601 32.82 110.549 32.82C111.737 32.82 112.643 33.138 113.267 33.774C113.903 34.41 114.221 35.31 114.221 36.474V40.578H114.707ZM110.045 40.866C110.501 40.866 110.921 40.746 111.305 40.506C111.701 40.254 112.013 39.924 112.241 39.516C112.481 39.096 112.607 38.64 112.619 38.148C112.079 38.064 111.335 38.022 110.387 38.022C109.091 38.022 108.443 38.502 108.443 39.462C108.443 39.906 108.587 40.254 108.875 40.506C109.163 40.746 109.553 40.866 110.045 40.866ZM117.186 42C116.79 42 116.592 41.838 116.592 41.514V41.064C116.592 40.74 116.79 40.578 117.186 40.578H117.654V30.102H117.186C116.79 30.102 116.592 29.94 116.592 29.616V29.166C116.592 28.842 116.79 28.68 117.186 28.68H118.608C118.788 28.68 118.938 28.746 119.058 28.878C119.19 28.998 119.256 29.154 119.256 29.346V40.578H119.724C120.12 40.578 120.318 40.74 120.318 41.064V41.514C120.318 41.838 120.12 42 119.724 42H117.186Z" fill="#1A1919"/>
<defs>
<clipPath id="clip0_2580_33009">
<rect width="28" height="28" fill="white" transform="translate(18 21.5)"/>
</clipPath>
</defs>
</svg>
