<svg width="116" height="29" viewBox="0 0 116 29" fill="none" xmlns="http://www.w3.org/2000/svg">
<path opacity="0.8" d="M26.3461 19.203V25.2394C24.1869 27.169 19.0274 28.3169 15.186 28.3169C11.3496 28.3169 0.730469 25.9024 0.730469 14.5569C0.730469 3.21143 10.838 0.767185 14.9155 0.767185C18.9979 0.767185 23.3458 1.51926 25.8641 3.21143V8.5205C25.8641 9.18351 24.964 9.12414 24.964 8.5205C24.905 7.61504 22.5048 2.18722 16.5042 2.30597C10.0265 2.43957 5.64899 7.56061 5.64899 14.3145C5.64899 21.0683 9.90352 26.8672 16.3271 26.6841C18.4126 26.6248 20.5865 25.9617 21.6391 25.081L21.6637 19.203C21.6637 17.5157 20.6456 16.9121 19.6274 16.9121C18.9634 16.9121 18.9634 15.9473 19.6274 15.9473H28.3824C29.0415 15.9473 29.0415 16.9715 28.3824 16.9121C27.3692 16.9121 26.3461 17.5157 26.3461 19.203ZM85.3733 8.52545C85.3733 9.18846 84.7143 9.12909 84.7143 8.52545C84.6503 7.61999 82.255 2.0091 76.2544 2.1328C69.7767 2.26144 65.3943 7.56556 65.3943 14.3194C65.3943 21.0732 69.5947 27.0503 76.0134 26.8722C82.4321 26.6891 85.4914 20.2964 85.7324 19.4503C85.9734 18.6043 86.3915 18.728 86.3915 19.391V24.3388C83.7552 26.2685 78.7727 28.3219 74.9362 28.3219C71.0998 28.3219 60.4807 25.9073 60.4807 14.5618C60.4807 3.21143 70.5588 0.5 74.6362 0.5C78.7186 0.5 82.8551 1.52421 85.3783 3.21143V8.52545H85.3733ZM58.1985 1.16301C59.1576 1.16301 59.1576 2.06848 58.1985 2.06848C57.1804 2.06848 56.1622 2.67212 56.1622 4.35934L56.0442 17.5454C56.0442 23.8589 50.9535 28.5 44.6726 28.5C38.3916 28.5 33.4878 23.8589 33.4878 17.5454V4.35934C33.4878 2.66717 32.4648 2.06848 31.4466 2.06848C30.4875 2.06848 30.4875 1.16301 31.4466 1.16301H40.3246C41.2837 1.16301 41.2837 2.06848 40.3246 2.06848C39.3015 2.06848 38.2834 2.67212 38.2834 4.35934L38.2736 19.0842C38.2736 23.5373 41.8936 27.1492 46.3203 27.1492C50.7469 27.1492 54.3375 22.6318 54.3375 18.1837L54.121 4.35934C54.121 2.66717 53.1029 2.06848 52.0799 2.06848C51.1257 2.06848 51.1257 1.16301 52.0799 1.16301H58.1985ZM114.707 8.52545C114.707 9.18846 114.048 9.12909 114.048 8.52545C113.989 7.61999 111.589 2.0091 105.588 2.1328C99.1108 2.26144 94.7284 7.56556 94.7284 14.3194C94.7284 21.0732 98.9288 27.0503 105.347 26.8722C111.766 26.694 114.825 20.2964 115.066 19.4503C115.307 18.6043 115.73 18.728 115.73 19.391V24.3388C113.089 26.2685 108.112 28.3219 104.27 28.3219C100.434 28.3219 89.8148 25.9073 89.8148 14.5618C89.8148 3.21143 99.8928 0.5 103.975 0.5C108.053 0.5 112.194 1.52421 114.712 3.21143V8.52545H114.707Z" fill="white" fill-opacity="0.6"/>
</svg>
